<svg xmlns="http://www.w3.org/2000/svg" xmlns:xlink="http://www.w3.org/1999/xlink" width="67" height="65" fill="none" xmlns:v="https://vecta.io/nano"><path d="M59.223 12.761v.915h.915 4.52a1.43 1.43 0 0 1 1.428 1.428v44.124a4.32 4.32 0 0 1-4.313 4.313H5.228a4.32 4.32 0 0 1-4.313-4.313V15.104a1.43 1.43 0 0 1 1.428-1.428h4.665.915v-.915-.587a1.24 1.24 0 0 1 1.235-1.235h21.308c.95 0 1.789.41 2.358 1.062l.687.787.69-.784c.577-.655 1.414-1.065 2.33-1.065h3.691c.046 0 .082.037.082.082s-.037.082-.082.082h-3.691c-1.591 0-2.906 1.286-2.941 2.877v.01.01 39.334 2.451l1.606-1.851c1.28-1.475 3.162-2.407 5.257-2.407h17.692.915v-.915-38.438a1.07 1.07 0 0 0-1.071-1.07H54.29c-.046 0-.082-.037-.082-.082s.037-.082.082-.082h3.697a1.24 1.24 0 0 1 1.235 1.235v.587zM9.002 51.692h-.915v.915 4.234c0 .889.722 1.612 1.612 1.612h22.798 1.074.002 1.074 7.54c.046 0 .082.037.082.082s-.037.082-.082.082H9.699a1.78 1.78 0 0 1-1.777-1.777V14.756v-.915h-.915-4.665c-.697 0-1.263.565-1.263 1.263v44.124c0 2.288 1.86 4.148 4.148 4.148h56.544c2.288 0 4.148-1.86 4.148-4.148V15.104c0-.698-.566-1.263-1.263-1.263h-4.519-.915v.915 42.086a1.78 1.78 0 0 1-1.777 1.777H46.438c-.046 0-.082-.037-.082-.082s.037-.082.082-.082h11.008c.889 0 1.612-.722 1.612-1.612v-4.234-.915h-.915-17.692c-3.376 0-6.18 2.472-6.706 5.699l-.172 1.055-.172-1.055c-.526-3.227-3.33-5.699-6.706-5.699H9.002zm24.421-37.69v-.013-.013a2.95 2.95 0 0 0-2.958-2.872H9.158a1.07 1.07 0 0 0-1.07 1.07v38.438.915h.915 17.692a6.94 6.94 0 0 1 5.139 2.271l1.591 1.741v-2.358-39.179z" fill="#a90" stroke="#575757" stroke-width="1.83"/><path d="M1.971 14.779h4.926v41.875c0 1.182 1.642 2.135 2.463 2.463h48.772c1.971 0 2.135-1.642 1.971-2.463V14.779h4.926v45.323c0 1.577-2.299 2.299-3.448 2.463H5.912c-2.759 0-3.777-1.642-3.941-2.463V14.779zm47.294-9.853h-3.941V2.463c.788-1.971 2.956-.821 3.941 0v2.463z" fill="#bfb240"/><g stroke="#575757" stroke-width="1.83"><path d="M46.93 47.829l-.396-.51-2.048-2.633-.193-.248v-.314V30.02c0-.046-.037-.082-.083-.082s-.082.037-.082.082v14.128a1.02 1.02 0 0 0 .213.62l2.59 3.061zm0 0a1 1 0 0 1-.471-.337l-2.119-2.724 2.59 3.061zM45.208 6.135h-.915v.915 18.72c0 .046-.037.082-.082.082s-.082-.037-.082-.082V3.4A2.49 2.49 0 0 1 46.613.915H47.9A2.49 2.49 0 0 1 50.384 3.4v40.749a1.02 1.02 0 0 1-.212.62l.722.562-.722-.562-2.119 2.724a1 1 0 0 1-.47.337l.396-.51 2.048-2.633.193-.248v-.314V7.05v-.915h-.915-4.096zm-.915-1.08v.915h.915 4.096.915v-.915V3.4a2.32 2.32 0 0 0-2.32-2.32h-1.286a2.32 2.32 0 0 0-2.32 2.32v1.656zM23.179 35.357h0c.043-.015.065-.062.05-.105s-.062-.065-.105-.05h0a7.74 7.74 0 0 1-2.601.448 7.72 7.72 0 0 1-4.624-1.533l-.849-.632.748-.748 4.783-4.783c.015-.016.024-.036.024-.058v-6.767-1.059l1.048.154c3.743.549 6.625 3.778 6.625 7.672a7.68 7.68 0 0 1-1.712 4.858m-3.388 2.605l2.675-3.178m-2.675 3.178c-.854.304-1.747.458-2.656.458-4.366 0-7.92-3.554-7.92-7.92s3.554-7.92 7.92-7.92 7.92 3.554 7.92 7.92c0 1.798-.622 3.561-1.748 4.961h0c-.028.035-.08.041-.116.013m-3.4 2.489l2.826-1.776m.561-.829l-.713-.574m.713.574l-.713-.574m.713.574c-.028.035-.023.087.012.116m-.725-.69a1 1 0 0 0 .152 1.402m.574-.713l-.574.713m.574-.713l-.574.713M20.439 21.13v-1.059l-1.048.154c-3.742.549-6.625 3.778-6.625 7.672a7.72 7.72 0 0 0 1.533 4.624l.632.849.748-.748 4.491-4.491.268-.268v-.379-6.354zm7.921-5.18H13.144c-.046 0-.082-.037-.082-.082s.037-.082.082-.082H28.36c.046 0 .082.037.082.082s-.037.082-.082.082z"/><use xlink:href="#B"/><use xlink:href="#B" y="5.098"/></g><defs ><path id="B" d="M13.144 40.29H28.36c.046 0 .082.037.082.082s-.037.082-.082.082H13.144c-.046 0-.082-.037-.082-.082s.037-.082.082-.082z"/></defs></svg>