<svg xmlns="http://www.w3.org/2000/svg" width="67" height="64" fill="none" xmlns:v="https://vecta.io/nano"><path d="M5.318 49.655v.888h.888 21.724.888v-.888V6.207v-.888h-.888H6.207h-.888v.888 43.448zm27.931 0v.888h.889 21.727.889v-.889L56.75 6.207v-.888h-.889-21.724-.889v.888 43.448zM6.207.888h49.655c2.932 0 5.318 2.386 5.318 5.318v43.448c0 2.932-2.386 5.318-5.318 5.318H6.207c-2.932 0-5.318-2.386-5.318-5.318V6.207C.888 3.274 3.274.888 6.207.888z" fill="#879015" stroke="#575757" stroke-width="1.777"/><path d="M11.652 13.594h9.31v6.207h-9.31v-6.207zm0 12.414h9.31v6.207h-9.31v-6.207z" fill="#575757"/><path d="M66.515 42.186c0 11.466-9.295 20.761-20.761 20.761s-20.761-9.295-20.761-20.761 9.295-20.761 20.761-20.761 20.761 9.295 20.761 20.761z" fill="#f2fff5" stroke="#575757" stroke-width=".971"/><path d="M60.094 37.153a15.17 15.17 0 0 0-8.467-8.467c-.442-2.642-2.73-4.669-5.497-4.669s-5.055 2.027-5.497 4.669a15.16 15.16 0 0 0-8.467 8.467c-2.642.442-4.669 2.73-4.669 5.497s2.027 5.055 4.669 5.497c1.524 3.846 4.619 6.943 8.467 8.467.442 2.642 2.73 4.669 5.497 4.669s5.055-2.027 5.497-4.669a15.17 15.17 0 0 0 8.467-8.467c2.642-.441 4.669-2.73 4.669-5.497s-2.027-5.055-4.669-5.497zm-13.963-9.409c1.029 0 1.863.835 1.863 1.863 0 .112-.043.205-.063.311a1.89 1.89 0 0 1-.155.52c-.026.05-.063.091-.095.14-.087.14-.181.278-.298.389-.075.069-.168.116-.253.172-.101.067-.194.145-.307.192a1.82 1.82 0 0 1-.691.14 1.82 1.82 0 0 1-.691-.14c-.114-.045-.207-.123-.307-.192-.086-.056-.179-.102-.253-.172-.117-.112-.211-.25-.298-.389-.032-.048-.069-.089-.095-.14-.078-.158-.123-.337-.155-.52-.02-.106-.063-.199-.063-.311 0-1.029.835-1.863 1.863-1.863zM33.088 40.786c.112 0 .205.043.311.063a1.89 1.89 0 0 1 .52.155c.05.026.091.063.14.095.14.088.278.181.389.298.069.075.115.168.171.253.067.101.145.194.192.307.088.214.14.445.14.691s-.052.477-.14.691c-.045.114-.123.207-.192.307-.056.086-.102.179-.171.254-.112.117-.25.21-.389.298-.048.032-.09.069-.14.095-.158.078-.337.123-.52.155-.106.02-.199.063-.311.063-1.029 0-1.863-.835-1.863-1.863s.835-1.863 1.863-1.863zm13.043 16.769c-1.029 0-1.863-.835-1.863-1.863 0-.112.043-.205.063-.311a1.88 1.88 0 0 1 .155-.52c.026-.05.063-.091.095-.14.088-.14.181-.278.298-.389.075-.069.168-.116.253-.171.101-.067.194-.145.307-.192.214-.088.445-.14.691-.14s.477.052.691.14c.114.045.207.123.307.192.086.056.179.102.253.171.117.112.211.25.298.389.032.048.069.089.095.14.078.158.123.337.155.52.02.106.063.199.063.311 0 1.029-.835 1.863-1.863 1.863zm4.813-4.681c-.011-.02-.032-.035-.041-.054a5.6 5.6 0 0 0-1.856-1.876c-.101-.061-.203-.112-.309-.168-.287-.155-.589-.279-.905-.382-.119-.039-.239-.082-.361-.114a5.62 5.62 0 0 0-1.34-.179c-.462 0-.906.073-1.338.181-.123.032-.242.073-.363.114-.315.102-.617.227-.904.382-.104.054-.209.106-.309.168-.76.47-1.394 1.111-1.856 1.876-.011.02-.032.035-.041.054a11.46 11.46 0 0 1-5.413-5.413c.02-.011.035-.032.054-.041.766-.462 1.407-1.096 1.876-1.856.061-.101.114-.205.168-.309a5.45 5.45 0 0 0 .382-.904c.039-.121.082-.24.114-.363.104-.436.177-.88.177-1.342a5.5 5.5 0 0 0-.181-1.338 4.75 4.75 0 0 0-.114-.361 5.34 5.34 0 0 0-.382-.906c-.056-.106-.106-.209-.168-.309a5.6 5.6 0 0 0-1.876-1.856c-.019-.011-.034-.032-.052-.043a11.46 11.46 0 0 1 5.413-5.413c.011.019.032.033.041.054a5.6 5.6 0 0 0 1.856 1.876c.101.062.205.114.309.168a5.49 5.49 0 0 0 .906.382c.119.039.239.082.361.114.434.106.876.179 1.34.179s.905-.073 1.338-.181c.123-.032.242-.073.361-.114a5.48 5.48 0 0 0 .905-.382c.104-.054.209-.106.309-.168.76-.47 1.394-1.111 1.856-1.876.011-.02.032-.035.041-.054a11.46 11.46 0 0 1 5.413 5.413c-.021.011-.035.032-.054.041a5.6 5.6 0 0 0-1.876 1.856c-.062.101-.114.205-.168.309-.155.289-.28.589-.382.905-.039.119-.082.239-.114.362-.104.436-.177.878-.177 1.341s.073.906.181 1.338a4.75 4.75 0 0 0 .114.361 5.47 5.47 0 0 0 .382.906c.054.104.106.209.168.309a5.6 5.6 0 0 0 1.876 1.856c.02.011.035.032.054.041a11.45 11.45 0 0 1-5.415 5.415zm8.23-8.362c-.112 0-.205-.043-.311-.063a1.89 1.89 0 0 1-.52-.155c-.05-.026-.091-.063-.14-.095-.14-.088-.278-.181-.389-.298-.069-.075-.116-.168-.171-.254-.067-.101-.145-.194-.192-.307-.088-.214-.14-.445-.14-.691s.052-.477.14-.691c.045-.114.123-.207.192-.307.056-.086.102-.179.171-.253.112-.117.25-.211.389-.298.049-.032.09-.069.14-.095a1.91 1.91 0 0 1 .52-.155c.106-.02.199-.063.311-.063 1.029 0 1.863.835 1.863 1.863s-.835 1.863-1.863 1.863z" fill="#575757"/></svg>