<svg width="67" height="61" viewBox="0 0 67 61" fill="none" xmlns="http://www.w3.org/2000/svg">
<path d="M0.985832 52.2207H18.2285H25.6183C26.8006 52.2207 27.7531 53.206 28.0815 53.6986H38.4271C39.6095 52.5163 40.8903 52.2207 41.383 52.2207H66.0153C66.8036 58.1325 61.7457 59.9388 59.1183 60.1031H10.8388C1.37995 60.8913 0.328969 55.1766 0.985832 52.2207Z" fill="#036330"/>
<path d="M3.44922 17.2426C3.44922 10.9367 8.70412 10.3455 11.3316 10.8382C15.2727 10.8382 15.9296 13.7942 15.7654 15.2721H13.3022H10.3463C8.37569 14.878 7.55461 16.4216 7.3904 17.2426V46.3089C7.3904 47.4913 8.37569 47.7868 8.86834 47.7868H58.6257C59.4139 47.7868 59.2826 46.8016 59.1183 46.3089V19.2133C59.1183 15.6663 57.8046 15.1079 57.1477 15.2721H54.1919C52.6154 13.6958 53.535 11.6594 54.1919 10.8382H57.6404C62.3698 10.8382 63.5522 15.1078 63.5522 17.2426L63.0595 52.2207L43.3536 52.7133C40.8904 54.6839 33.9933 53.6986 31.0375 54.1913C28.6727 54.5854 25.7826 53.0418 24.633 52.2207H3.44922V17.2426Z" fill="#036330"/>
<path d="M63.4751 51.144V52.059H64.3901H65.4664C65.612 52.059 65.7462 52.1099 65.8522 52.1949H65.0341H40.4529C40.1354 52.1949 39.832 52.3502 39.648 52.6205L40.4045 53.1353L39.648 52.6205L39.3533 53.0537L39.3532 53.0537C38.8835 53.7442 38.1051 54.1561 37.2697 54.1561H29.599C28.764 54.1561 27.9856 53.7443 27.5157 53.0538C27.5156 53.0538 27.5156 53.0538 27.5156 53.0537L27.2209 52.6207L27.2201 52.6195C27.0371 52.3514 26.735 52.1949 26.416 52.1949H15.9436C15.906 52.1949 15.8757 52.1646 15.8757 52.127C15.8757 52.0894 15.906 52.0591 15.9436 52.0591H26.416C26.7839 52.0591 27.1263 52.2404 27.3331 52.5443L28.0896 52.0296L27.3331 52.5443L27.6277 52.9773L27.6278 52.9774C28.0721 53.6302 28.8094 54.0203 29.599 54.0203H37.2697C38.0592 54.0203 38.7968 53.6304 39.241 52.9774C39.2411 52.9773 39.2411 52.9773 39.2411 52.9773L39.5358 52.5443L39.5359 52.5441C39.7424 52.2404 40.0848 52.0591 40.453 52.0591H62.4243H63.3393V51.1441V16.5013C63.3393 13.5387 60.9304 11.1299 57.9677 11.1299H54.4812C54.4436 11.1299 54.4133 11.0996 54.4133 11.062C54.4133 11.0244 54.4436 10.9941 54.4812 10.9941H57.9677C61.0037 10.9941 63.4751 13.4655 63.4751 16.5013V51.144ZM65.9491 53.1099V52.2918C66.034 52.3978 66.085 52.532 66.085 52.6777V54.1734C66.085 57.3678 63.4846 59.9681 60.2902 59.9681H6.70975C3.51535 59.9681 0.915 57.3678 0.915 54.1734V52.6777C0.915 52.5321 0.965914 52.3979 1.05079 52.292V53.1099V54.1734C1.05079 57.2945 3.5886 59.8323 6.70975 59.8323H60.2901C63.4113 59.8323 65.9491 57.2945 65.9491 54.1734V53.1099ZM1.14786 52.1949C1.2538 52.11 1.38798 52.0591 1.53343 52.0591H1.53357H2.60991H3.52491V51.1441V16.5013C3.52491 13.4654 5.9964 10.9941 9.03226 10.9941H11.9307C11.9684 10.9941 11.9986 11.0244 11.9986 11.062C11.9986 11.0996 11.9684 11.1299 11.9307 11.1299H9.03226C6.06957 11.1299 3.66069 13.5387 3.66069 16.5013V51.1441V52.0591H4.57569H11.7547C11.7924 52.0591 11.8226 52.0894 11.8226 52.127C11.8226 52.1646 11.7923 52.1949 11.7547 52.1949H1.96579H1.14786Z" stroke="#575757" stroke-width="1.83"/>
<path d="M58.2317 47.8652H59.1467V46.9502V39.6154C59.1467 39.5778 59.177 39.5475 59.2146 39.5475C59.2522 39.5475 59.2825 39.5778 59.2825 39.6154V47.9331C59.2825 47.9707 59.2522 48.001 59.2146 48.001H7.78758C7.74997 48.001 7.71969 47.9707 7.71969 47.9331V16.5011C7.71969 15.7775 8.30977 15.1875 9.03323 15.1875H15.3637C15.4013 15.1875 15.4316 15.2177 15.4316 15.2554C15.4316 15.293 15.4013 15.3232 15.3637 15.3232H9.03323C8.38265 15.3232 7.85547 15.851 7.85547 16.5011V46.9502V47.8652H8.77047H58.2317Z" stroke="#575757" stroke-width="1.83"/>
<path d="M57.9672 15.1875C58.6907 15.1875 59.2809 15.7776 59.2809 16.5011V35.4265C59.2809 35.4642 59.2506 35.4944 59.213 35.4944C59.1754 35.4944 59.1451 35.4642 59.1451 35.4265V16.5011C59.1451 15.8504 58.6172 15.3232 57.9672 15.3232H54.7837C54.7461 15.3232 54.7158 15.293 54.7158 15.2554C54.7158 15.2177 54.7461 15.1875 54.7837 15.1875H57.9672Z" stroke="#575757" stroke-width="1.83"/>
<path d="M16.9314 9.74658L16.9315 9.74651L32.8523 1.19796L32.8534 1.19735C33.2159 1.00339 33.6516 1.00245 34.0159 1.19809C34.0159 1.19812 34.016 1.19814 34.016 1.19817L49.9364 9.74651L49.9365 9.74657C50.5002 10.0494 50.5847 10.5893 50.5847 10.8305C50.5847 11.0721 50.5 11.6116 49.9365 11.9143L49.9364 11.9143L34.0168 20.4623L16.9314 9.74658ZM16.9314 9.74658C16.3677 10.0494 16.2832 10.5893 16.2832 10.8305C16.2832 11.0719 16.3679 11.6119 16.932 11.9144L24.5335 15.9961L24.5336 15.9962C24.5666 16.0139 24.5789 16.0549 24.5613 16.0878L24.561 16.0884C24.5434 16.1212 24.5025 16.1335 24.4697 16.1159L24.4694 16.1157L21.1524 14.3347L19.8046 13.6109V15.1408V23.2392C19.8046 26.0112 22.0583 28.2649 24.8304 28.2649H42.1687C44.9408 28.2649 47.1945 26.0112 47.1945 23.2392V15.0706V13.5407L45.8467 14.2644L34.0801 20.5824L34.0798 20.5826C33.8767 20.6918 33.6551 20.7458 33.434 20.7458C33.213 20.7458 32.9913 20.6918 32.788 20.5825L32.7878 20.5824L28.2772 18.1605L28.2771 18.1604C28.2441 18.1427 28.2317 18.1017 28.2495 18.0686C28.2675 18.0351 28.3085 18.0233 28.3411 18.0407L28.3413 18.0409M16.9314 9.74658L28.3413 18.0409M24.0365 16.9218C24.5149 17.1789 25.1109 16.9991 25.3674 16.5208L24.0365 16.9218ZM24.0365 16.9218L21.6346 15.6321L24.0365 16.9218ZM28.3413 18.0409L32.8514 20.4625C32.8516 20.4626 32.8518 20.4628 32.852 20.4629M28.3413 18.0409L32.852 20.4629M32.852 20.4629C33.2153 20.658 33.6519 20.6584 34.0158 20.4629L32.852 20.4629ZM16.8673 12.0339L16.8671 12.0338C16.4228 11.7953 16.1474 11.3351 16.1474 10.8306L16.1474 10.8305C16.1473 10.326 16.4226 9.86568 16.8673 9.62694L16.8673 9.62693L32.7878 1.07838L32.788 1.07829C33.1933 0.860538 33.675 0.860594 34.08 1.07832L34.0804 1.07851L50.0006 9.6269C50.0006 9.62691 50.0006 9.62692 50.0006 9.62693C50.4453 9.86574 50.7205 10.3259 50.7205 10.8302V10.8302V10.8303V10.8303V10.8303V10.8304V10.8304V10.8304V10.8305V30.7498V31.4393L51.3834 31.6294C52.4958 31.9483 53.3098 32.9749 53.3098 34.1834C53.3098 35.6477 52.117 36.8406 50.6526 36.8406C49.1882 36.8406 47.9954 35.6477 47.9954 34.1834C47.9954 32.9749 48.8094 31.9484 49.9219 31.6293L50.5847 31.4393V30.7498V13.2502V11.7204L49.2369 12.4441L47.8124 13.2089L47.3303 13.4678V14.0151V23.2392C47.3303 26.0844 45.014 28.4007 42.1687 28.4007H24.8303C21.985 28.4007 19.6687 26.0844 19.6687 23.2392V14.0853V13.538L19.1865 13.2792L16.8673 12.0339ZM17.7968 10.3017C17.7971 10.3018 17.7974 10.302 17.7976 10.3021L17.7972 10.3019L17.7968 10.3017ZM50.6527 36.7048C52.0438 36.7048 53.1742 35.5745 53.1742 34.1834C53.1742 32.7924 52.0439 31.6619 50.6527 31.6619C49.2616 31.6619 48.1313 32.7922 48.1313 34.1834C48.1313 35.5745 49.2616 36.7048 50.6527 36.7048Z" stroke="#575757" stroke-width="1.83"/>
<circle cx="50.7421" cy="34.4852" r="1.97059" fill="#036330"/>
</svg>
